<svg width="486" height="459" viewBox="0 0 486 459" fill="none" xmlns="http://www.w3.org/2000/svg">
    <path d="M405.899 361.911H298C283.496 408.91 230.004 446.5 189.504 457.5C180.593 459.921 180.671 453.5 182.004 451C222.004 407.5 216.167 370.911 216.5 361.911H76.4002C-30.5967 342.912 -11.597 218.412 50.3992 199.912C-30.0999 110.412 92.8997 8.41223 157.399 76.4123C168.399 -21.5878 309.399 -28.5864 327.399 74.4123C414.399 4.91226 508.399 136.412 435.399 199.911C478.899 219.911 484.732 257.745 485.399 276.911C484.999 330.511 438.899 361.911 405.899 361.911Z" fill="#F1A836"/>
</svg>
