<svg width="723" height="166" viewBox="0 0 723 166" fill="none" xmlns="http://www.w3.org/2000/svg">
    <path fill-rule="evenodd" clip-rule="evenodd" d="M696.101 1.05736C696.101 1.63787 695.34 1.83535 694.41 1.49599C693.329 1.09989 692.231 1.89974 691.364 3.7122C689.962 6.64641 688.086 7.52486 688.086 5.24755C688.086 4.53282 687.33 4.90055 686.406 6.06594C684.938 7.91551 684.72 7.95041 684.688 6.342C684.645 4.1258 680.072 4.08211 680.072 6.29831C680.072 7.10579 680.587 7.46373 681.217 7.09273C681.846 6.72172 682.362 7.18436 682.362 8.11951C682.362 9.05466 681.846 9.8207 681.217 9.8207C680.587 9.8207 680.108 11.416 680.152 13.3671C680.219 16.3395 680.392 16.5599 681.217 14.731C681.758 13.5307 682.237 13.1946 682.282 13.9847C682.325 14.7736 681.791 16.4355 681.094 17.6761C680.173 19.3195 680.167 22.6389 681.073 29.8811C681.757 35.3523 682.579 42.1985 682.899 45.0956C683.219 47.9927 683.759 50.7905 684.097 51.3142C684.436 51.8369 685.001 58.2596 685.352 65.5859C685.704 72.9132 686.131 79.935 686.303 81.1921C687.024 86.468 688.314 92.3506 689.198 94.3878C689.719 95.5881 690.807 98.2397 691.616 100.281C692.828 103.339 693.218 103.639 693.827 101.983C694.467 100.245 694.866 100.453 696.759 103.507C697.964 105.451 700.341 107.704 702.041 108.512C704.987 109.912 705.148 109.847 705.483 107.105C705.682 105.462 706.655 104.079 707.747 103.881C709.187 103.621 709.505 104.103 709.034 105.821C708.449 107.952 708.619 108.015 711.543 106.744C713.268 105.995 714.107 105.2 713.405 104.977C712.704 104.754 712.13 103.326 712.13 101.801C712.13 99.607 712.45 99.284 713.667 100.246C714.512 100.914 715.439 101.237 715.727 100.963C716.434 100.289 713.572 68.6587 712.102 60.9025C711.068 55.4487 710.617 49.0697 709.591 25.3701C709.455 22.2188 708.884 19.6414 708.325 19.6414C707.764 19.6414 707.63 18.8361 708.027 17.8508C708.423 16.8665 708.161 13.2208 707.444 9.74977C706.491 5.13295 705.716 3.59436 704.557 4.01883C703.515 4.39965 702.971 3.80933 702.971 2.29913C702.971 0.472479 702.265 0 699.536 0C697.647 0 696.101 0.475752 696.101 1.05736ZM554.704 18.2632C553.445 18.5666 551.285 19.9775 549.902 21.3993C548.331 23.0154 546.687 23.729 545.52 23.3023C544.308 22.8582 543.729 23.1496 543.872 24.1306C544.416 27.8395 543.594 29.3246 540.412 30.382C538.537 31.0051 536.046 33.015 534.876 34.8493C533.704 36.6836 532.378 37.8326 531.927 37.4026C531.476 36.9727 531.446 37.4616 531.86 38.4884C532.334 39.6669 531.96 40.5933 530.848 41.0003C529.878 41.3549 529.349 42.3032 529.672 43.1074C529.996 43.9116 529.287 45.4982 528.097 46.6319C526.907 47.7668 526.118 49.2202 526.342 49.8629C526.568 50.5067 526.085 51.7038 525.269 52.5232C524.454 53.3427 523.779 54.5049 523.769 55.105C523.732 57.6028 519.519 67.6297 518.71 67.1529C517.586 66.4905 515.2 74.0022 515.2 78.2011C515.2 79.9623 514.617 81.9581 513.905 82.6368C512.178 84.2823 513.134 107.587 515 109.365C515.74 110.07 516.344 111.758 516.344 113.119C516.344 114.479 517.925 117.131 519.856 119.015C521.788 120.898 523.092 123.124 522.755 123.962C522.417 124.803 522.833 125.487 523.683 125.487C526.256 125.487 528.347 128.686 528.851 133.398C528.9 133.848 529.487 134.216 530.158 134.216C530.829 134.216 533.791 136.561 536.742 139.427C542.536 145.055 558.302 153.095 566.224 154.459C568.702 154.887 571.199 155.494 571.771 155.81C572.345 156.126 579.176 156.606 586.95 156.877C598.117 157.267 602.656 156.964 608.565 155.44C612.679 154.379 616.312 153.097 616.64 152.593C616.967 152.088 618.106 151.674 619.171 151.673C624.908 151.666 646.709 134.041 650.593 126.269C659.4 108.64 659.859 106.51 659.831 83.3122C659.81 64.6354 659.626 62.9747 656.614 54.1524C654.858 49.0064 653.026 45.0301 652.542 45.3149C652.057 45.5997 651.931 44.85 652.261 43.6486C652.678 42.1297 652.297 41.4652 651.01 41.4652C649.991 41.4652 649.158 40.5824 649.158 39.5043C649.158 37.0939 641.565 29.9848 637.852 28.9187C636.004 28.3873 635.381 28.5204 635.908 29.3322C636.393 30.0808 636.02 30.2859 634.913 29.8811C633.938 29.5243 633.428 28.7932 633.777 28.2542C634.514 27.1182 628.83 24.8038 627.387 25.6527C626.854 25.967 626.125 25.7739 625.768 25.2228C625.411 24.6718 622.026 23.8785 618.247 23.4606C611.269 22.6891 609.271 21.2705 613.951 20.4118C615.367 20.151 613.694 19.9295 610.23 19.9186C605.121 19.9033 604.581 20.0571 607.368 20.7326C609.599 21.2738 605.787 21.6536 596.491 21.815C579.521 22.1119 576.579 21.9406 576.073 20.629C575.521 19.2028 573.994 19.4134 572.149 21.1723C570.234 22.9979 562.833 23.9188 562.439 22.3814C562.287 21.7867 563.015 21.2956 564.057 21.2902C565.1 21.2836 566.197 20.5416 566.494 19.6414C566.792 18.7412 566.626 18.3691 566.126 18.8132C565.625 19.2584 564.626 19.1558 563.904 18.5862C563.056 17.9141 561.46 18.1105 559.375 19.1406C555.297 21.1571 554.631 21.1472 556.418 19.0958C557.202 18.1956 557.651 17.5158 557.416 17.5856C557.182 17.6555 555.961 17.9599 554.704 18.2632ZM595.06 20.3637C595.847 20.6671 597.135 20.6671 597.922 20.3637C598.71 20.0615 598.065 19.8138 596.491 19.8138C594.916 19.8138 594.273 20.0615 595.06 20.3637ZM617.958 21.4549C618.746 21.7583 620.034 21.7583 620.821 21.4549C621.609 21.1527 620.964 20.905 619.39 20.905C617.815 20.905 617.172 21.1527 617.958 21.4549ZM643.434 34.2393C643.434 34.4652 644.335 35.325 645.437 36.1489C647.253 37.5052 647.293 37.4671 645.87 35.7364C644.374 33.9185 643.434 33.3413 643.434 34.2393ZM581.987 48.9693C578.103 49.3436 574.732 49.8946 574.497 50.1947C574.262 50.4948 572.667 52.8277 570.952 55.3778C569.238 57.9279 566.997 60.0154 565.973 60.0154C564.95 60.0154 563.467 60.8567 562.678 61.8835C561.451 63.4853 560.975 63.5388 559.356 62.2578C557.162 60.5228 556.474 61.0749 553.316 67.1081C550.214 73.0322 548.425 77.9807 546.805 85.1127C544.993 93.0817 546.972 104.139 550.648 106.593C552.016 107.506 552.88 108.891 552.566 109.67C552.247 110.464 553.019 111.342 554.328 111.667C555.609 111.987 556.435 112.89 556.16 113.675C555.533 115.47 557.951 117.835 560.981 118.391C564.489 119.035 565.797 120.093 565.131 121.748C564.8 122.571 565.652 123.995 567.024 124.912C569.982 126.885 571.767 127.087 570.621 125.318C570.11 124.531 570.307 124.355 571.144 124.848C571.881 125.283 572.221 126.043 571.9 126.539C571.085 127.793 574.06 128.724 576.745 128.055C578.023 127.737 579.851 128.335 581.025 129.453C583.117 131.447 587.664 131.664 594.773 130.108C597.923 129.419 597.733 129.302 592.483 128.685L586.759 128.012L593.892 127.84C609.364 127.468 618.371 120.683 625.26 104.209C626.013 102.408 626.546 100.567 626.444 100.117C626.343 99.6659 626.767 99.2982 627.386 99.2982C629.168 99.2982 628.545 74.2346 626.676 70.709C625.817 69.0875 625.114 66.0191 625.114 63.8891C625.114 61.758 624.599 60.0154 623.969 60.0154C623.34 60.0154 622.825 59.5626 622.825 59.0082C622.825 57.6453 616.567 51.7638 614.007 50.7206C612.874 50.2591 609.887 49.7484 607.368 49.5858C604.849 49.4232 599.697 49.0653 595.918 48.7903C592.14 48.5154 585.871 48.595 581.987 48.9693ZM629.785 72.6546C629.84 73.9259 630.111 74.1845 630.476 73.3148C630.807 72.5269 630.766 71.5852 630.386 71.223C630.006 70.8607 629.735 71.5045 629.785 72.6546ZM709.341 100.709C709.772 101.785 710.412 102.391 710.764 102.055C711.117 101.72 710.766 100.839 709.982 100.098C708.851 99.0286 708.721 99.1542 709.341 100.709ZM516.344 101.962C516.344 102.827 516.86 103.838 517.489 104.209C518.119 104.58 518.634 103.871 518.634 102.636C518.634 101.401 518.119 100.389 517.489 100.389C516.86 100.389 516.344 101.096 516.344 101.962ZM517.588 106.936C517.622 107.837 518.093 109.555 518.634 110.756L519.618 112.938L519.681 110.756C519.716 109.555 519.245 107.837 518.634 106.936C517.647 105.482 517.532 105.482 517.588 106.936ZM525.069 121.616C525.44 122.538 526.205 123.021 526.769 122.688C527.333 122.356 527.794 122.58 527.794 123.184C527.794 123.79 530.37 126.886 533.519 130.065C541.06 137.681 540.933 135.747 533.371 127.822C526.948 121.091 523.958 118.857 525.069 121.616ZM700.912 119.825C699.811 120.413 697.89 120.585 696.643 120.208C693.879 119.372 693.741 120.465 696.271 123.129C698.069 125.022 697.981 125.125 694.554 125.125C690.431 125.125 690.305 125.367 692.651 128.78C694.063 130.833 694.113 131.778 692.937 134.19C692.155 135.796 690.853 137.115 690.047 137.119C685.717 137.144 688.613 146.535 693.985 149.891C697.93 152.355 717.742 152.895 720.146 150.604C721.996 148.841 721.217 145.858 718.906 145.858C717.999 145.858 717.62 145.181 717.998 144.24C718.491 143.017 719.178 142.894 720.825 143.733C722.63 144.655 723 144.466 723 142.622C723 141.401 722.564 140.402 722.031 140.402C721.498 140.402 721.048 137.258 721.03 133.416C720.999 126.877 720.749 126.218 717.132 123.128C714.28 120.69 712.172 119.838 709.081 119.874C706.778 119.901 704.448 119.661 703.905 119.341C703.36 119.02 702.013 119.238 700.912 119.825ZM540.388 135.815C540.388 136.093 541.548 136.91 542.964 137.631C545.3 138.817 545.394 138.769 543.97 137.123C542.507 135.433 540.388 134.659 540.388 135.815Z" fill="#8A8AF7"/>
    <path d="M94.5442 24.564C95.1322 25.936 95.1322 27.504 95.3282 28.68C94.7402 53.768 89.2522 84.54 88.2722 122.956C88.0762 132.364 88.2722 160.98 79.8442 156.864C77.4922 150.592 75.3362 146.672 74.3562 142.556C71.6122 131.58 70.8282 121.584 71.8082 112.568C73.7682 95.32 75.1402 79.444 76.5122 65.528C76.7082 63.96 76.7082 62.196 76.9042 60.824C76.3162 60.628 63.3802 86.892 41.8202 83.756C14.3802 80.424 0.464156 29.072 0.660156 21.82C0.660156 20.448 0.856156 19.076 1.44416 18.096C3.01216 16.136 6.54016 16.136 8.69616 18.292C10.0682 19.664 10.6562 21.232 11.4402 22.996C13.4002 28.092 25.1602 58.472 42.4082 64.156C59.8522 69.84 73.3762 39.46 77.6882 30.64C78.4722 28.68 78.6682 26.524 79.0602 24.368C79.2562 23.192 79.2562 21.82 79.8442 20.644C81.0202 18.88 83.9602 18.292 87.2922 19.272C90.6242 20.056 93.7602 22.212 94.5442 24.564ZM134.856 46.712C128.388 46.124 127.212 46.908 126.624 53.18C125.84 63.372 125.644 73.76 125.056 84.148C125.056 87.48 125.644 91.204 125.84 95.32C134.268 94.928 142.108 94.536 150.144 93.948C155.436 93.752 160.532 94.928 165.236 97.672C166.412 98.26 167 99.436 168.176 100.024C165.236 105.12 160.532 107.276 155.24 108.06C148.576 108.844 141.912 108.844 135.052 109.04C132.112 109.04 129.172 109.04 125.644 109.04C126.036 122.956 126.036 136.48 127.408 150.592C133.484 149.808 138.972 149.024 144.46 148.436C152.496 147.26 160.336 145.496 168.372 144.712C171.508 144.32 174.84 145.104 177.78 146.084C183.072 148.24 183.464 152.356 179.348 155.492C177.192 157.06 174.448 158.04 171.508 158.628C157.984 160.784 144.46 162.744 131.132 164.704C127.996 165.096 125.056 165.096 121.92 165.096C118.196 165.096 114.668 162.352 113.492 158.628C112.904 156.08 112.512 153.728 112.316 150.984C111.532 138.636 110.748 125.896 110.16 113.548C109.964 111.196 108.984 108.648 108.004 106.492C106.632 104.14 106.044 101.984 107.808 100.024C110.16 97.868 109.768 94.928 109.768 92.184C109.964 79.248 109.964 66.312 110.748 53.376C112.12 35.736 119.96 29.66 136.62 31.228C146.028 32.208 154.848 33.188 164.452 33.972C168.96 34.364 173.272 34.56 177.388 35.148C183.072 35.54 187.384 38.676 187.776 42.596C187.776 46.516 184.052 50.24 178.368 50.044C168.372 49.652 157.984 48.868 147.988 47.888C143.676 47.496 139.364 46.908 134.856 46.712ZM225.1 45.144C221.768 48.672 218.632 52.788 216.476 57.1C207.656 74.74 204.52 93.164 209.616 112.568C210.988 118.448 213.732 124.524 218.044 129.424C224.316 135.892 232.156 137.46 239.996 133.736C245.68 131.188 249.6 127.268 253.52 123.152C257.44 119.232 261.752 115.704 266.064 111.98C267.044 111 268.612 110.804 270.964 109.628C272.14 117.272 271.748 123.544 268.22 129.228C261.36 139.616 251.756 147.064 239.408 150.2C227.648 153.14 217.456 149.808 208.636 141.576C200.404 133.736 196.092 123.936 193.936 112.96C189.036 89.048 192.956 66.508 205.304 45.536C211.772 34.168 220.984 26.132 234.508 23.388C247.248 20.84 258.42 23.976 267.044 34.168C269.788 37.304 271.552 41.616 273.316 45.536C273.904 46.908 273.904 48.868 273.512 50.24C273.12 51.808 271.748 53.964 270.572 54.552C269.396 54.748 267.044 53.572 265.868 52.004C262.144 48.868 258.42 45.144 254.304 42.204C244.504 35.736 233.332 36.912 225.1 45.144ZM394.842 20.644C398.566 23.78 398.566 25.936 394.646 27.896C390.922 29.856 386.61 31.62 382.494 32.208C370.734 33.384 359.17 34.168 347.214 35.148C345.058 35.344 342.314 35.54 339.962 35.736C338.786 46.516 337.61 57.1 337.022 67.488C335.846 90.224 335.062 119.232 333.886 142.164C333.69 146.672 332.906 151.18 330.162 154.904C327.81 158.628 325.066 158.824 322.322 155.296C319.578 151.18 318.206 146.476 318.402 141.772C318.99 126.484 319.382 105.12 320.166 89.832C321.342 72.78 323.106 55.924 324.478 38.676C324.478 38.088 324.282 37.5 324.086 36.52C321.93 36.52 319.97 36.52 318.01 36.52C308.602 37.108 299.39 37.5 290.178 37.5C287.042 37.5 283.906 37.304 280.966 36.52C277.634 35.932 276.066 33.188 276.066 30.248C276.066 27.308 277.634 25.348 280.574 24.172C282.142 23.976 283.906 23.78 285.278 23.388C302.33 22.408 319.186 21.232 336.042 20.056C351.134 19.076 366.03 18.096 381.122 16.92C386.218 16.528 390.922 17.312 394.842 20.644ZM484.534 26.524C484.926 30.248 485.122 33.776 485.122 37.696C484.926 51.22 484.73 64.94 484.338 78.464C483.946 95.908 482.966 113.156 482.182 130.404C481.986 135.108 481.79 140.008 481.006 144.712C480.222 148.24 479.046 151.768 477.282 155.1C474.93 159.608 471.794 159.412 469.442 154.904C466.894 150.2 466.11 145.3 466.306 140.4C466.894 129.032 467.678 117.664 467.874 106.296C468.266 104.336 467.874 102.376 467.874 99.828C451.606 100.808 435.534 101.788 419.07 102.572C418.678 107.668 418.286 112.372 418.09 116.88C417.894 124.916 418.09 132.952 417.698 140.596C417.11 146.868 415.934 152.748 414.954 158.824C414.758 160.196 414.562 161.372 413.778 162.352C412.798 163.528 411.622 165.096 410.25 165.292C409.466 165.292 407.702 163.92 407.31 162.94C405.546 158.432 403.978 153.728 403.194 149.416C402.214 144.712 402.214 139.812 402.214 135.108C402.214 126.68 402.998 118.252 403.194 109.628C403.194 106.1 404.174 101.984 401.43 98.26C400.842 97.672 401.234 95.516 402.018 94.536C404.37 92.184 403.978 89.244 404.37 86.5C406.33 64.352 408.486 42.008 410.446 20.056C410.642 17.116 411.622 14.176 412.994 11.824C415.738 7.31599 421.03 7.708 423.186 12.608C423.97 14.764 424.362 17.312 424.166 19.86C423.774 30.248 422.99 40.636 422.01 51.22C421.226 64.352 420.246 77.484 419.462 91.596C435.73 90.812 451.802 90.028 468.462 89.244C468.462 88.656 468.854 87.284 468.854 85.716C470.03 67.488 471.01 49.26 472.186 31.424C472.578 29.66 472.578 27.896 472.774 26.328C473.754 22.604 475.91 21.036 478.85 21.036C481.79 21.232 483.946 22.996 484.534 26.524Z" fill="#8A8AF7"/>
</svg>
